<svg xmlns="http://www.w3.org/2000/svg" width="55" height="55" viewBox="0 0 55 55">
  <defs>
    <style>
      .cls-1 {
        fill: #fff;
      }

      .cls-2 {
        fill: red;
        fill-rule: evenodd;
      }
    </style>
  </defs>
  <circle id="Эллипс_1" data-name="Эллипс 1" class="cls-1" cx="27.5" cy="27.5" r="27.5"/>
  <path id="f_1" data-name="f 1" class="cls-2" d="M41.487,23.964a4.55,4.55,0,0,0,.827.525q0.468,0.235,1.034.483a20.508,20.508,0,0,1,2.046,1.091,5.643,5.643,0,0,1,1.447,1.257,4.828,4.828,0,0,1,.86,1.685,8.462,8.462,0,0,1,.283,2.348,5.617,5.617,0,0,1-1.48,4.158,6.068,6.068,0,0,1-4.462,1.478,9.81,9.81,0,0,1-1.806-.152,9.564,9.564,0,0,1-1.426-.373,7.067,7.067,0,0,1-1.066-.47,7.492,7.492,0,0,1-.751-0.47L37.95,32.1a7.584,7.584,0,0,0,1.665.843,6.918,6.918,0,0,0,2.427.373,3.9,3.9,0,0,0,1.186-.152,1.985,1.985,0,0,0,.751-0.414,1.385,1.385,0,0,0,.392-0.622,2.757,2.757,0,0,0,.109-0.8,2,2,0,0,0-.7-1.561,9.1,9.1,0,0,0-2.394-1.34,16,16,0,0,1-1.48-.76,5.488,5.488,0,0,1-1.328-1.077,5.178,5.178,0,0,1-.958-1.575,6.069,6.069,0,0,1-.37-2.251,6.876,6.876,0,0,1,.392-2.39,5.125,5.125,0,0,1,1.11-1.809A4.821,4.821,0,0,1,40.5,17.417a6.288,6.288,0,0,1,2.307-.4,7.531,7.531,0,0,1,2.633.414,8.36,8.36,0,0,1,1.828.912l-0.979,3.4a8.333,8.333,0,0,0-1.4-.732,4.893,4.893,0,0,0-1.861-.318,2.818,2.818,0,0,0-1.752.428,1.582,1.582,0,0,0-.533,1.312,1.824,1.824,0,0,0,.2.884A2.173,2.173,0,0,0,41.487,23.964ZM31.806,34.553l-0.577-2.094H25.338q-0.286,1.048-.573,2.1T24.231,36.6H20.705q0.851-3.094,1.615-5.719t1.5-4.945q0.731-2.321,1.441-4.406t1.474-4.075h3.218q0.743,1.989,1.465,4.075t1.454,4.406q0.732,2.321,1.5,4.945T35.984,36.6H32.347Q32.1,35.605,31.806,34.553Zm-2.053-7.9q-0.324-1.134-.616-2.076T28.624,22.92Q28.4,22.2,28.268,21.8q-0.114.417-.333,1.135t-0.5,1.659q-0.28.941-.625,2.072t-0.7,2.372h4.313Q30.077,27.788,29.753,26.654Zm-12.076-.188q-0.783,2.542-1.653,5.139t-1.767,5H11.019q-0.9-2.412-1.777-5.006T7.578,26.463Q6.789,23.924,6.128,21.6T4.986,17.458H8.73q0.423,1.663.942,3.58t1.056,3.821l1.03,3.648q0.493,1.744.944,3.012,0.425-1.26.929-3t1.042-3.648q0.538-1.9,1.056-3.821t0.944-3.588h3.615Q19.78,19.29,19.12,21.607T17.678,26.465Z"/>
</svg>
