<?xml version="1.0" encoding="UTF-8"?>
<svg xmlns="http://www.w3.org/2000/svg" xmlns:xlink="http://www.w3.org/1999/xlink" width="16px" height="16px" viewBox="0 0 16 16" version="1.1">
<g id="surface1">
<path style=" stroke:none;fill-rule:nonzero;fill:rgb(100%,100%,100%);fill-opacity:1;" d="M 16 8 C 16 12.417969 12.417969 16 8 16 C 3.582031 16 0 12.417969 0 8 C 0 3.582031 3.582031 0 8 0 C 12.417969 0 16 3.582031 16 8 Z M 16 8 "/>
<path style=" stroke:none;fill-rule:evenodd;fill:rgb(100%,0%,0%);fill-opacity:1;" d="M 12.070312 6.972656 C 12.144531 7.03125 12.222656 7.082031 12.308594 7.125 C 12.398438 7.167969 12.5 7.214844 12.609375 7.265625 C 12.816406 7.359375 13.011719 7.464844 13.207031 7.582031 C 13.367188 7.679688 13.507812 7.800781 13.625 7.949219 C 13.742188 8.09375 13.828125 8.257812 13.875 8.4375 C 13.9375 8.660156 13.964844 8.890625 13.957031 9.121094 C 13.988281 9.566406 13.832031 10.003906 13.527344 10.332031 C 13.171875 10.640625 12.703125 10.796875 12.230469 10.761719 C 12.054688 10.761719 11.878906 10.746094 11.703125 10.714844 C 11.5625 10.691406 11.425781 10.65625 11.289062 10.609375 C 11.183594 10.570312 11.078125 10.523438 10.980469 10.472656 C 10.90625 10.429688 10.832031 10.382812 10.761719 10.335938 L 11.039062 9.339844 C 11.191406 9.441406 11.351562 9.523438 11.523438 9.582031 C 11.75 9.660156 11.992188 9.699219 12.230469 9.691406 C 12.347656 9.695312 12.464844 9.679688 12.574219 9.648438 C 12.65625 9.625 12.730469 9.582031 12.792969 9.527344 C 12.847656 9.476562 12.886719 9.414062 12.90625 9.347656 C 12.929688 9.269531 12.941406 9.191406 12.941406 9.113281 C 12.941406 8.9375 12.867188 8.773438 12.734375 8.660156 C 12.523438 8.496094 12.289062 8.363281 12.039062 8.269531 C 11.890625 8.203125 11.75 8.128906 11.609375 8.046875 C 11.464844 7.964844 11.335938 7.859375 11.222656 7.734375 C 11.101562 7.601562 11.007812 7.445312 10.945312 7.277344 C 10.867188 7.066406 10.832031 6.84375 10.835938 6.621094 C 10.832031 6.386719 10.871094 6.148438 10.949219 5.925781 C 11.019531 5.730469 11.128906 5.550781 11.273438 5.402344 C 11.417969 5.253906 11.589844 5.140625 11.78125 5.066406 C 11.996094 4.984375 12.222656 4.945312 12.453125 4.949219 C 12.714844 4.945312 12.972656 4.984375 13.21875 5.070312 C 13.40625 5.136719 13.585938 5.226562 13.75 5.335938 L 13.464844 6.324219 C 13.335938 6.242188 13.199219 6.171875 13.058594 6.113281 C 12.886719 6.046875 12.703125 6.015625 12.515625 6.019531 C 12.339844 6.003906 12.160156 6.046875 12.007812 6.144531 C 11.898438 6.238281 11.839844 6.382812 11.851562 6.527344 C 11.851562 6.613281 11.871094 6.703125 11.910156 6.78125 C 11.949219 6.855469 12.003906 6.917969 12.070312 6.972656 Z M 9.253906 10.050781 L 9.085938 9.441406 L 7.371094 9.441406 C 7.316406 9.644531 7.261719 9.847656 7.203125 10.054688 C 7.148438 10.257812 7.097656 10.457031 7.050781 10.648438 L 6.023438 10.648438 C 6.1875 10.046875 6.34375 9.492188 6.492188 8.984375 C 6.640625 8.472656 6.785156 7.996094 6.929688 7.546875 C 7.070312 7.09375 7.210938 6.667969 7.347656 6.261719 C 7.488281 5.859375 7.628906 5.464844 7.777344 5.078125 L 8.714844 5.078125 C 8.859375 5.464844 9 5.859375 9.140625 6.261719 C 9.28125 6.667969 9.421875 7.09375 9.5625 7.546875 C 9.703125 7.996094 9.851562 8.476562 10 8.984375 C 10.148438 9.492188 10.304688 10.046875 10.46875 10.648438 L 9.410156 10.648438 C 9.363281 10.453125 9.308594 10.253906 9.253906 10.050781 Z M 8.65625 7.753906 C 8.59375 7.535156 8.53125 7.332031 8.476562 7.148438 C 8.417969 6.96875 8.371094 6.804688 8.328125 6.667969 C 8.285156 6.527344 8.25 6.417969 8.222656 6.34375 C 8.203125 6.421875 8.167969 6.53125 8.125 6.671875 C 8.085938 6.8125 8.035156 6.972656 7.980469 7.15625 C 7.925781 7.335938 7.867188 7.539062 7.800781 7.757812 C 7.730469 7.976562 7.664062 8.207031 7.59375 8.449219 L 8.851562 8.449219 C 8.785156 8.203125 8.71875 7.972656 8.65625 7.753906 Z M 5.140625 7.699219 C 4.992188 8.191406 4.832031 8.691406 4.660156 9.195312 C 4.492188 9.699219 4.320312 10.183594 4.148438 10.648438 L 3.207031 10.648438 C 3.03125 10.179688 2.859375 9.695312 2.6875 9.191406 C 2.519531 8.6875 2.355469 8.191406 2.203125 7.699219 C 2.050781 7.207031 1.910156 6.734375 1.78125 6.285156 C 1.65625 5.832031 1.542969 5.429688 1.449219 5.078125 L 2.539062 5.078125 C 2.621094 5.402344 2.714844 5.75 2.8125 6.121094 C 2.914062 6.492188 3.015625 6.863281 3.121094 7.230469 L 3.421875 8.292969 C 3.515625 8.632812 3.609375 8.921875 3.695312 9.167969 C 3.777344 8.925781 3.867188 8.632812 3.964844 8.296875 C 4.0625 7.957031 4.164062 7.605469 4.269531 7.234375 C 4.371094 6.867188 4.476562 6.496094 4.574219 6.125 C 4.675781 5.75 4.769531 5.402344 4.851562 5.078125 L 5.902344 5.078125 C 5.804688 5.433594 5.691406 5.835938 5.5625 6.285156 C 5.433594 6.734375 5.292969 7.207031 5.144531 7.699219 Z M 5.140625 7.699219 "/>
</g>
</svg>
